<svg width="17" height="17" viewBox="0 0 17 17" fill="none" xmlns="http://www.w3.org/2000/svg">
<g clip-path="url(#clip0_697_76)">
<g clip-path="url(#clip1_697_76)">
<path d="M6.96336 8.07459L6.96336 5.07459M10.3467 11.1849L9.86536 12.7306L9.38403 11.1849L8.90269 12.7306L8.42169 11.1849M10.8364 12.6003C10.9427 12.6896 11.0577 12.7306 11.316 12.7306L11.4467 12.7306C11.66 12.7306 11.8324 12.5576 11.8324 12.3439C11.8324 12.1306 11.6597 11.9576 11.4467 11.9576L11.185 11.9576C11.1343 11.9575 11.0842 11.9475 11.0373 11.9281C10.9905 11.9086 10.948 11.8802 10.9122 11.8443C10.8764 11.8084 10.848 11.7658 10.8286 11.719C10.8093 11.6721 10.7993 11.6219 10.7994 11.5713C10.7994 11.3579 10.972 11.1846 11.185 11.1846L11.316 11.1846C11.5744 11.1846 11.6894 11.2259 11.796 11.3153M6.26103 12.7306L6.26103 11.7683C6.26103 11.6135 6.19957 11.4652 6.09017 11.3558C5.98078 11.2464 5.8324 11.1849 5.67769 11.1849C5.52298 11.1849 5.37461 11.2464 5.26521 11.3558C5.15582 11.4652 5.09436 11.6135 5.09436 11.7683M5.09436 12.7306L5.09436 11.1849M7.92069 12.4363C7.86971 12.5256 7.79598 12.6 7.707 12.6517C7.61801 12.7033 7.51694 12.7306 7.41403 12.7306C7.25932 12.7306 7.11094 12.6691 7.00155 12.5597C6.89215 12.4503 6.83069 12.302 6.83069 12.1473L6.83069 11.7683C6.83069 11.4459 7.09169 11.1849 7.41403 11.1849C7.73603 11.1849 7.99736 11.4459 7.99736 11.7683L7.99736 11.9576L6.83069 11.9576" stroke="white" stroke-width="0.5" stroke-linecap="round" stroke-linejoin="round"/>
<path d="M8.46293 16.0693C12.421 16.0693 15.6296 12.8607 15.6296 8.90263C15.6296 4.94459 12.421 1.73596 8.46293 1.73596C4.50489 1.73596 1.29626 4.94459 1.29626 8.90263C1.29626 12.8607 4.50489 16.0693 8.46293 16.0693Z" stroke="white" stroke-linecap="round" stroke-linejoin="round"/>
<path d="M4.69861 9.57458C5.52704 9.57458 6.19861 8.90301 6.19861 8.07458C6.19861 7.24616 5.52704 6.57459 4.69861 6.57459C3.87018 6.57458 3.19861 7.24616 3.19861 8.07458C3.19861 8.90301 3.87018 9.57458 4.69861 9.57458Z" stroke="white" stroke-width="0.5" stroke-linecap="round" stroke-linejoin="round"/>
<path d="M8.46326 9.57458C9.29168 9.57458 9.96326 8.90301 9.96326 8.07458C9.96326 7.24616 9.29168 6.57459 8.46326 6.57459C7.63483 6.57458 6.96326 7.24616 6.96326 8.07458C6.96326 8.90301 7.63483 9.57458 8.46326 9.57458Z" stroke="white" stroke-width="0.5" stroke-linecap="round" stroke-linejoin="round"/>
<path d="M13.5716 8.74188C13.4212 9.04483 13.1727 9.28804 12.8667 9.43203C12.5606 9.57601 12.2148 9.61232 11.8855 9.53505C11.5562 9.45778 11.2627 9.27148 11.0526 9.00638C10.8425 8.74129 10.7281 8.41296 10.7281 8.07471C10.7281 7.73645 10.8425 7.40813 11.0526 7.14303C11.2627 6.87794 11.5562 6.69163 11.8855 6.61437C12.2148 6.5371 12.5606 6.57341 12.8667 6.71739C13.1727 6.86138 13.4212 7.10459 13.5716 7.40754" stroke="white" stroke-width="0.5" stroke-linecap="round" stroke-linejoin="round"/>
<path d="M6.19861 8.07458L6.19861 9.57458" stroke="white" stroke-width="0.5" stroke-linecap="round" stroke-linejoin="round"/>
</g>
</g>
<defs>
<clipPath id="clip0_697_76">
<rect width="16" height="16" fill="white" transform="translate(0.462891 16.9026) rotate(-90)"/>
</clipPath>
<clipPath id="clip1_697_76">
<rect width="16" height="16" fill="white" transform="translate(0.462891 0.902588)"/>
</clipPath>
</defs>
</svg>
