<svg width="17" height="17" viewBox="0 0 17 17" fill="none" xmlns="http://www.w3.org/2000/svg">
<g clip-path="url(#clip0_697_54)">
<path d="M15.1296 8.90263C15.1296 5.22263 12.1429 2.23596 8.46293 2.23596C4.78293 2.23596 1.79626 5.22263 1.79626 8.90263C1.79626 12.1293 4.0896 14.816 7.1296 15.436L7.1296 10.9026L5.79626 10.9026L5.79626 8.90263L7.1296 8.90263L7.1296 7.23596C7.1296 5.9493 8.17626 4.90263 9.46293 4.90263L11.1296 4.90263L11.1296 6.90263L9.79626 6.90263C9.4296 6.90263 9.1296 7.20263 9.1296 7.5693L9.1296 8.90263L11.1296 8.90263L11.1296 10.9026L9.1296 10.9026L9.1296 15.536C12.4963 15.2026 15.1296 12.3626 15.1296 8.90263Z" fill="white"/>
</g>
<defs>
<clipPath id="clip0_697_54">
<rect width="16" height="16" fill="white" transform="translate(0.462891 16.9026) rotate(-90)"/>
</clipPath>
</defs>
</svg>
