<svg width="17" height="17" viewBox="0 0 17 17" fill="none" xmlns="http://www.w3.org/2000/svg">
<path d="M8.10526 9.27631C9.63821 9.27631 10.8809 8.0336 10.8809 6.50064C10.8809 4.96768 9.63822 3.72498 8.10526 3.72498C6.5723 3.72498 5.32959 4.96768 5.32959 6.50064C5.32959 8.0336 6.5723 9.27631 8.10526 9.27631Z" stroke="white" stroke-width="0.7" stroke-linecap="round" stroke-linejoin="round"/>
<path d="M8.10528 8.69566C9.31754 8.69566 10.3003 7.71293 10.3003 6.50066C10.3003 5.2884 9.31754 4.30566 8.10528 4.30566C6.89301 4.30566 5.91028 5.2884 5.91028 6.50066C5.91028 7.71293 6.89301 8.69566 8.10528 8.69566Z" stroke="white" stroke-width="0.7" stroke-linecap="round" stroke-linejoin="round"/>
<path d="M8.1053 7.09769C8.43501 7.09769 8.7023 6.8304 8.7023 6.50069C8.7023 6.17097 8.43501 5.90369 8.1053 5.90369C7.77559 5.90369 7.5083 6.17097 7.5083 6.50069C7.5083 6.8304 7.77559 7.09769 8.1053 7.09769Z" stroke="white" stroke-width="0.7" stroke-linecap="round" stroke-linejoin="round"/>
<path d="M8.10526 5.12829C8.33646 5.12835 8.5639 5.18682 8.76646 5.29828C8.96902 5.40973 9.14014 5.57056 9.26394 5.76582C9.38773 5.96109 9.46018 6.18446 9.47457 6.41521C9.48896 6.64596 9.44482 6.87661 9.34625 7.08574C9.24767 7.29487 9.09786 7.47571 8.91071 7.61146C8.72357 7.74722 8.50516 7.8335 8.27576 7.86228C8.04636 7.89106 7.8134 7.86143 7.59852 7.77611C7.38363 7.6908 7.19379 7.55259 7.0466 7.37429M11.6609 8.71196L11.6609 4.23096L13.1176 4.23096C13.9576 4.23096 14.6296 4.90329 14.6296 5.74329C14.6296 6.58329 13.9576 7.25562 13.1173 7.25562L11.6609 7.25562M2.29626 4.23096L5.20893 4.23096M3.7526 8.71196L3.7526 4.23096" stroke="white" stroke-width="0.7" stroke-linecap="round" stroke-linejoin="round"/>
<path d="M2.83557 14.0802L2.83557 10.8046L5.0059 14.0802L5.0059 10.8046M11.3182 10.8046L10.4992 14.0802L9.68057 10.8046L8.86157 14.0802L8.04257 10.8046M11.9609 13.7119C12.1659 13.9576 12.4116 14.0802 12.7799 14.0802L13.2712 14.0802C13.7216 14.0802 14.0902 13.7119 14.0902 13.2612C14.0902 12.8106 13.7216 12.4426 13.2712 12.4426L12.7389 12.4426C12.2886 12.4426 11.9199 12.0739 11.9199 11.6236C11.9199 11.1732 12.2886 10.8046 12.7389 10.8046L13.2302 10.8046C13.5989 10.8046 13.8446 10.8866 14.0492 11.1732M5.74424 12.4426L6.80857 12.4426M7.3819 14.0802L5.74424 14.0802L5.74424 10.8046L7.3819 10.8046" stroke="white" stroke-width="0.7" stroke-linecap="round" stroke-linejoin="round"/>
</svg>
