<svg width="17" height="17" viewBox="0 0 17 17" fill="none" xmlns="http://www.w3.org/2000/svg">
<path d="M7.1296 10.9026L10.5896 8.90263L7.1296 6.90263L7.1296 10.9026ZM14.8363 5.68263C14.9229 5.99596 14.9829 6.41596 15.0229 6.9493C15.0696 7.48263 15.0896 7.94263 15.0896 8.34263L15.1296 8.90263C15.1296 10.3626 15.0229 11.436 14.8363 12.1226C14.6696 12.7226 14.2829 13.1093 13.6829 13.276C13.3696 13.3626 12.7963 13.4226 11.9163 13.4626C11.0496 13.5093 10.2563 13.5293 9.52293 13.5293L8.46293 13.5693C5.6696 13.5693 3.9296 13.4626 3.24293 13.276C2.64293 13.1093 2.25626 12.7226 2.0896 12.1226C2.00293 11.8093 1.94293 11.3893 1.90293 10.856C1.85626 10.3226 1.83626 9.86263 1.83626 9.46263L1.79626 8.90263C1.79626 7.44263 1.90293 6.3693 2.0896 5.68263C2.25626 5.08263 2.64293 4.69596 3.24293 4.5293C3.55626 4.44263 4.1296 4.38263 5.0096 4.34263C5.87627 4.29596 6.6696 4.27596 7.40293 4.27596L8.46293 4.23596C11.2563 4.23596 12.9963 4.34263 13.6829 4.5293C14.2829 4.69596 14.6696 5.08263 14.8363 5.68263Z" fill="white"/>
</svg>
