<svg width="26" height="26" viewBox="0 0 26 26" fill="none" xmlns="http://www.w3.org/2000/svg">
<path fill-rule="evenodd" clip-rule="evenodd" d="M20.6999 15.3442C19.3215 15.3442 18.2005 14.2232 18.2005 12.8448C18.2005 11.4663 19.3215 10.3453 20.6999 10.3453C22.0783 10.3453 23.1993 11.4663 23.1993 12.8448C23.1993 14.2232 22.0783 15.3442 20.6999 15.3442ZM5.70342 22.9986C4.32499 22.9986 3.204 21.8776 3.204 20.4992C3.204 19.1208 4.32499 17.9998 5.70342 17.9998C9.00639 17.9998 9.00764 22.9986 5.70342 22.9986ZM5.70342 8.00215C4.32499 8.00215 3.204 6.88116 3.204 5.50273C3.204 4.12431 4.32499 3.00332 5.70342 3.00332C9.00639 3.00332 9.00764 8.00215 5.70342 8.00215ZM20.6999 7.84593C19.174 7.84593 17.8256 8.54439 16.9083 9.62164L10.651 6.0089C10.9672 2.90213 8.539 0.503906 5.70342 0.503906C2.94281 0.503906 0.70459 2.74213 0.70459 5.50273C0.70459 8.26334 2.94281 10.5016 5.70342 10.5016C7.38677 10.5016 8.86766 9.66311 9.7737 8.38841L15.7998 11.8675C15.6648 12.5474 15.6686 13.2023 15.8111 13.8809L9.62874 17.4387C8.71395 16.2665 7.30429 15.5004 5.70342 15.5004C2.94281 15.5004 0.70459 17.7386 0.70459 20.4992C0.70459 23.2598 2.94281 25.498 5.70342 25.498C8.65523 25.498 11.1071 22.9086 10.626 19.7481L16.9445 16.1127C17.8606 17.165 19.1953 17.8436 20.6999 17.8436C23.4605 17.8436 25.6987 15.6054 25.6987 12.8448C25.6987 10.0842 23.4605 7.84593 20.6999 7.84593Z" fill="white"/>
</svg>
